<svg width="800" height="600" xmlns="http://www.w3.org/2000/svg">

 <g>
  <title>Layer 1</title>
  <g>
   <path fill="#ffffff" d="m442.14165,97.92079c-3.85,4.75 -6.2,10.19 -7.32,15.8c-1.54,7.75 -0.79,15.83 1.52,22.92c1.32,4.09 -0.91,8.48 -5,9.81c-0.8,0.25 -1.61,0.38 -2.4,0.38l-229.87,0.01l0,309.02c0.5,10.58 2.21,17.8 6.27,21.94c4.02,4.1 11.14,6 22.62,6.15l240.24,-0.03l0,-70.82c5.8,-0.39 11.19,-2.55 15.58,-5.98l0,22.73l43.34,0c4.22,0.03 7.69,3.41 7.77,7.64c0.45,22.7 -2.44,38.67 -11.56,49.04c-9.2,10.44 -23.6,14.41 -45.79,12.82c-0.5,0.1 -1.02,0.16 -1.55,0.16l-248.19,-0.04c-15.9,-0.21 -26.45,-3.55 -33.55,-10.78c-7.19,-7.33 -10.07,-17.86 -10.73,-32.49l-0.04,-309.36l-41.69,0c-4.3,0 -7.79,-3.49 -7.79,-7.79l0.06,-0.97c0.54,-12.11 3.2,-24.49 9.01,-34.66l0.28,-0.45c5.27,-9.02 12.99,-16.27 23.79,-20.18c0.87,-0.3 1.75,-0.45 2.62,-0.45l268.94,-0.03l0.79,0.04l0.39,0c12.91,0.11 23.95,2.21 32.03,9.21c8.17,7.07 12.6,18.4 11.85,36.55l0.01,61.75c-5.55,3.31 -10.73,6.88 -15.55,10.68l0.01,-72.77c0.57,-12.97 -1.87,-20.47 -6.48,-24.47c-4.34,-3.75 -11.21,-5.12 -19.61,-5.38zm-20.13,284.12c-6.28,19.68 -15.42,38.63 -16.89,57.91l10.89,-1.83c13.2,-51.75 26.05,-86.86 56.43,-131.93c22.77,-33.79 48.27,-61.27 81.94,-84.2c17.93,-12.21 41.05,-25.87 62.48,-30.58c5.85,-1.29 11.85,-2.01 18.03,-2c-65.84,20.83 -116.06,60.74 -154.15,117.54c-15.54,23.15 -28.63,48.55 -40.39,75.15l25.88,2.58l-11.04,-4.42l37.5,-9.14c-14.5,-3.84 -28.3,-1.04 -33.21,-6.04c38.96,-4.96 70.39,-16.01 91.62,-34.25c-8.5,-0.49 -18.26,-0.75 -23.5,-2.75c36.76,-15.87 56.74,-40.62 82.81,-63.25c-35.42,10.51 -68.87,11.97 -79.08,5.91c63.98,-0.47 103.65,-21.39 114.11,-66.87c0.82,-4.89 0.77,-9.74 -0.39,-14.55c-7.53,-31.27 -64.49,-37.41 -80.62,-9.93c-3.23,5.5 -7.99,10.67 -11.76,17.04l14.72,-34c-45.46,19.6 -47.89,37.33 -67.81,91.75c0.62,-16.12 3.86,-30.94 8.52,-45.06c-56.58,27.3 -71.42,85.64 -70.6,134.16c-3.06,-16.7 -1.67,-38.11 2.41,-62.36c-15.65,18.48 -25.62,39.48 -19.15,67.78l-8.1,-2.85l5.35,15.03l-12.12,-4.58l16.12,25.74zm-168.91,12.57c-4.24,0 -7.68,-3.47 -7.68,-7.76c0,-4.28 3.44,-7.75 7.68,-7.75l98.66,0c4.23,0 7.67,3.47 7.67,7.75c0,4.29 -3.44,7.76 -7.67,7.76l-98.66,0zm0,-47.12c-4.24,0 -7.68,-3.47 -7.68,-7.76c0,-4.28 3.44,-7.75 7.68,-7.75l127.08,0c4.24,0 7.68,3.47 7.68,7.75c0,4.29 -3.44,7.76 -7.68,7.76l-127.08,0zm-2.94,-47.12c-4.46,0 -8.09,-3.48 -8.09,-7.77c0,-4.28 3.63,-7.76 8.09,-7.76l150.77,0c4.46,0 8.09,3.48 8.09,7.76c0,4.29 -3.63,7.77 -8.09,7.77l-150.77,0zm2.7,-47.19c-4.3,0 -7.79,-3.45 -7.79,-7.7c0,-4.26 3.49,-7.71 7.79,-7.71l161.17,0c4.3,0 7.79,3.45 7.79,7.71c0,4.25 -3.49,7.7 -7.79,7.7l-161.17,0zm0.24,-47.02c-4.31,0 -7.8,-3.5 -7.8,-7.8s3.49,-7.79 7.8,-7.79l161.16,0c4.3,0 7.8,3.49 7.8,7.79s-3.5,7.8 -7.8,7.8l-161.16,0zm230.68,239.28l0,38.64c13.93,0.41 22.78,-2.07 27.85,-7.84c5.3,-6.02 7.47,-16.2 7.74,-30.8l-35.59,0zm-64.24,-334.76c0.87,-4.37 2.27,-8.67 4.28,-12.78l-252.69,0c-6.36,2.63 -11.03,7.21 -14.34,12.86l-0.21,0.39c-3.35,5.87 -5.35,12.86 -6.34,20.1l268.9,0c-1.01,-6.69 -0.96,-13.72 0.4,-20.57z" fill-rule="nonzero"/>
  </g>
 </g>
</svg>